#!OML:ASF F:\VICON\USERDATA\INSTALL\rory3\rory3.ASF
:FULLY-SPECIFIED
:DEGREES
58
root 0.9989591530361178 17.842995578687827 45.08400320512855 -3.6672781075962906 -2.4293762048607164 1.1300129227200304
lfemur 10.563725750865121 -3.980418536001064 -25.559162201635893
ltibia 14.976754843606404
lfoot 0.08182827240175783 -6.675592092382012
ltoes -2.4181362031426255
rfemur -27.804450937496487 2.773082109073848 20.45296013130808
rtibia 52.856071932993196
rfoot -6.5285969411781295 -1.7459518173317958
rtoes 3.729200934567178
lowerback 1.0 -0.875873366549245 -2.032280849264329
upperback 0.5082545125470568 -1.2947801935891066 1.472849771637299
thorax -4.800557892777833 -0.5975366677169133 2.8889532814986287
lowerneck -17.16253090401592 -2.7133577757878014 -1.9185462432702103
upperneck 21.54748337692885 -3.423131851836213 1.0860370180051326
head 9.72390842094757 -1.6705095429753465 0.31872983976858665
lclavicle -1.09777969916231e-15 -4.1827387248202096e-16
lhumerus -23.913282102924306 -4.690580653529657 83.21404501644903
lradius 29.637008880609706
lwrist 4.23838189003074
lhand -26.864344134296957 23.755934784103264
lfingers nan
lthumb -0.386528356331034 53.67034749992238
rclavicle -1.2284029774233338e-15 -5.123652825363583e-16
rhumerus -29.96038651074842 -18.775255073042914 -81.41543061158691
rradius 26.94448545727995
rwrist 3.0076919406238036
rhand -17.55838302513006 1.0
rfingers nan
rthumb 9.025901881044486 -7.569881672022229
59
root 1.0130812528323456 17.814693826119733 45.48205985352541 -3.594130084436499 -2.7221021175881344 0.8447129119083385
lfemur 11.621978133326774 -3.9878738308911252 -25.084266312841223
ltibia 16.981579795355174
lfoot -0.7459806331646615 -7.0244681342151924
ltoes -1.9654827711179124
rfemur -27.892568261735413 2.901621099164486 20.81918848028509
rtibia 47.10457067800048
rfoot -6.987609485298799 -1.334192885652044
rtoes 3.301888583027345
lowerback 1.0 -1.021043286784375 -1.9827626638613514
upperback 0.4545358250519409 -1.4271169442559446 1.7711881703328582
thorax -4.83695509727257 -0.6629435893244527 3.037102666770119
lowerneck -17.084224911996774 -2.652321415594991 -2.0197047322514656
upperneck 21.752878101038913 -3.320113557092043 0.9251450776774433
head 9.798580616213679 -1.632848661620082 0.28001708173961154
lclavicle -1.096998746777651e-15 -4.170082188526456e-16
lhumerus -23.156902128302313 -4.886439421943184 82.9548725768244
lradius 30.159331330295274
lwrist 4.37823682483616
lhand -26.907885589689478 23.72234925852715
lfingers nan
lthumb -0.40438882198866666 53.70486026493404
rclavicle -1.2307069313847696e-15 -5.12921432336519e-16
rhumerus -30.54907777079344 -19.405759127026457 -81.10640814170674
rradius 27.33488189280222
rwrist 3.7091474833507023
rhand -17.579583024803135 1.0
rfingers nan
rthumb 9.02504646034127 -7.620289123218327
60
root 1.0683825026312528 17.805912431842426 46.82062601899007 -3.481421539005148 -2.766840206517004 1.3613423883951516
lfemur 12.03376374885887 -4.097410820204507 -25.287130137525164
ltibia 20.197829271594614
lfoot -0.9471584935480166 -6.154085478605022
ltoes -1.2831754063632541
rfemur -27.362212359909865 2.7504504382134045 20.537544431389346
rtibia 41.14171060508199
rfoot -7.8980226654264944 -0.8868062675490149
rtoes 2.868292408097119
lowerback 1.0 -1.1621940913592068 -2.288891417446033
upperback 0.43648229656574494 -1.637208862993121 1.7876729790492987
thorax -4.809320972275578 -0.7749705509798414 3.1969745604131394
lowerneck -17.01229154139226 -2.613294544670673 -2.074745558998973
upperneck 21.919866572865747 -3.2493288179844786 0.7726458887342468
head 9.861138170600194 -1.6087641416438085 0.23599949526881947
lclavicle -1.0983658510340092e-15 -4.175959771769272e-16
lhumerus -22.859845700713787 -4.726400610233753 82.79588520144247
lradius 30.530467200598967
lwrist 4.521900092799374
lhand -26.874914636000383 23.72817343024344
lfingers nan
lthumb -0.37682450838620185 53.69453690159193
rclavicle -1.2324153092171939e-15 -5.129084871452167e-16
rhumerus -31.045479654272807 -20.05106849469057 -80.64048827608418
rradius 27.755554469292722
rwrist 3.545741744055176
rhand -17.58425581886295 1.0
rfingers nan
rthumb 9.0100783631097 -7.768226940010151
61
root 1.1276036285429376 17.80502701875838 47.05775926971705 -3.427315439348358 -2.852282673571912 1.7879296608155748
lfemur 11.793835309572287 -4.114620215413664 -25.172910167145353
ltibia 24.475011151850502
lfoot -1.71531277119229 -5.5387902583154975
ltoes -0.920065732860389
rfemur -26.494482850699036 2.570801064808455 20.606451875711787
rtibia 35.423133223874856
rfoot -8.923241532047136 -0.9547208136640535
rtoes 2.4554008915943757
lowerback 1.0 -1.3068358029430294 -2.5222333282308798
upperback 0.4546504698346835 -1.866146192971837 1.7649801190220356
thorax -4.708155570932194 -0.8838177716745877 3.3367472575998574
lowerneck -16.99552208686433 -2.6012276125906264 -2.155620217649602
upperneck 22.0363782819259 -3.2186551591705266 0.6618388823309949
head 9.909589989692957 -1.5999159014731446 0.19899391160674296
lclavicle -1.0978466672489747e-15 -4.166928269130357e-16
lhumerus -22.837382614456804 -4.449939223502392 82.76233104803342
lradius 30.605224261966463
lwrist 4.610411292144884
lhand -26.880175839034354 23.570519836846362
lfingers nan
lthumb -0.3440302275790015 53.60933265493722
rclavicle -1.238837505469288e-15 -5.167039671977717e-16
rhumerus -31.43793294899261 -20.76954758859356 -80.07793700807728
rradius 28.150613178500873
rwrist 3.6014722751128323
rhand -17.558251056298147 1.0
rfingers nan
rthumb 9.049891785231724 -7.857358178288416
62
root 1.1979040729365455 17.81175630696669 47.14266901674382 -3.3308720471648607 -2.980889696913708 1.8119589008922632
lfemur 11.072772998970358 -3.9369685817507527 -24.480614873075943
ltibia 29.41374594689211
lfoot -2.4383296431787085 -4.239191875143282
ltoes -1.3501376103618603
rfemur -25.92867406136942 2.563490779462423 21.075366692216495
rtibia 30.717059533854872
rfoot -9.909362686010429 -2.2508461162473994
rtoes 2.3443196715919337
lowerback 1.0 -1.412553951723528 -2.3311432828060763
upperback 0.43802411852215983 -1.9815308391143567 1.8083407739042379
thorax -4.646441347818736 -0.9421713658273018 3.355825418116805
lowerneck -16.946875843832743 -2.5948238477227497 -2.2088628410728526
upperneck 22.07643174300536 -3.202375305953688 0.5704432254526776
head 9.91878575596504 -1.5977420514872585 0.166884024474748
lclavicle -1.0958093961233514e-15 -4.1476222805131724e-16
lhumerus -22.98948688372247 -4.318553917548207 82.84166080301601
lradius 30.32554976675847
lwrist 4.683073360263292
lhand -26.820743276813463 23.572778605133813
lfingers nan
lthumb -0.30210328847422324 53.551890173853494
rclavicle -1.2457994737068493e-15 -5.212841311217821e-16
rhumerus -31.72749445655204 -21.582116376708505 -79.47560964250944
rradius 28.467757370150558
rwrist 3.409833822419551
rhand -17.54977752301831 1.0
rfingers nan
rthumb 9.072168528510746 -7.914441906568129
63
root 1.2856349649937906 17.831653830278277 47.91493396812585 -3.1784263160541872 -3.144854329560259 1.1424512605690036
lfemur 9.929471222977927 -3.6024737562204736 -23.209382412548738
ltibia 34.76431754707525
lfoot -3.451062974679525 -3.832982913717373
ltoes -1.7850038057970246
rfemur -25.573695261500152 2.8530618766463443 22.198968325566955
rtibia 27.829561882432706
rfoot -10.987494307374885 -4.728530749575503
rtoes 2.7246311321618535
lowerback 1.0 -1.4593479148666906 -1.6319095244666886
upperback 0.3711262090534843 -1.985277796348387 1.960586985258311
thorax -4.663228619570639 -0.9687817057350053 3.277926622067032
lowerneck -16.913841957475395 -2.595593574479849 -2.2206125311436393
upperneck 22.09722897481097 -3.2003950234953 0.48908833774438926
head 9.920020638685079 -1.6012473911511065 0.13318052806633984
lclavicle -1.0960444170009713e-15 -4.15101448750413e-16
lhumerus -23.279851786112502 -4.427537363251694 83.00346683242043
lradius 29.684463313906736
lwrist 4.765606229979477
lhand -26.86661263922773 23.431419479592485
lfingers nan
lthumb -0.3063454088918307 53.4817573533116
rclavicle -1.2466968812905087e-15 -5.220511871588121e-16
rhumerus -31.889454845665558 -22.422585364973834 -78.8806322885982
rradius 28.672953863955463
rwrist 3.3251076894006224
rhand -17.548221529940566 1.0
rfingers nan
rthumb 9.109674957791928 -7.8878266772604295
64
root 1.3634684576453622 17.860333734837617 48.8254318996364 -2.935645793472389 -3.5462980329672336 -0.2884965626803704
lfemur 8.3381646409001 -2.982962540104852 -20.960047081601697
ltibia 40.037604694981184
lfoot -4.775920688439394 -2.010936905263733
ltoes -2.1136249637844804
rfemur -24.52791775404619 3.4373972529275894 24.120717954085322
rtibia 26.40466185049589
rfoot -12.212179494077906 -6.850005005347462
rtoes 3.4640212074858883
lowerback 1.0 -1.3435690815713972 -0.303688528976483
upperback 0.2928195367168158 -1.7061250974203943 2.208673467267807
thorax -4.738129196086762 -0.8593251247131902 3.1583493410013226
lowerneck -16.910149164363556 -2.6032982392605226 -2.1524601897129014
upperneck 22.07255688496163 -3.2122896603551965 0.41566780183313884
head 9.904995504882478 -1.609516952154024 0.09786787322808257
lclavicle -1.097096890916977e-15 -4.1651859207491113e-16
lhumerus -23.692389176331158 -4.723985857899759 83.2120339188024
lradius 28.693006690388664
lwrist 4.848987921268102
lhand -26.880035435951417 23.479235116916936
lfingers nan
lthumb -0.33133734086145183 53.456629068947954
rclavicle -1.243113124460178e-15 -5.201642160645726e-16
rhumerus -31.900860598516353 -23.192015995688863 -78.35067126353857
rradius 28.75511519019246
rwrist 3.7379075151907823
rhand -17.551117374135043 1.0
rfingers nan
rthumb 9.112526965999049 -7.880544297737111
65
root 1.42036349897365 17.88984667669011 49.40161111197955 -2.848525101023848 -4.214476008813325 -1.497794296952947
lfemur 6.3380151991096145 -2.1257642267267354 -18.590455932380795
ltibia 44.885052772125405
lfoot -5.665730556824962 -0.2734942839096445
ltoes -3.568689847405438
rfemur -21.986865776432616 4.055270437200843 26.2475759471762
rtibia 25.59402131843995
rfoot -14.088289320998296 -8.107134440053644
rtoes 4.042204950693671
lowerback 1.0 -1.0642549405906303 0.8371716783861208
upperback 0.2489914315978747 -1.169541652390415 2.4130648134321224
thorax -4.8121876173913725 -0.5822868121752366 3.044158020015026
lowerneck -16.976345563665816 -2.624721395418684 -2.0551527393153934
upperneck 22.013298102709026 -3.243906418760104 0.3709672734728017
head 9.879785977082566 -1.6241877347624836 0.06788511533724213
lclavicle -1.0969255726277198e-15 -4.1715731641676465e-16
lhumerus -24.20000605421184 -5.031437341393116 83.43594992229983
lradius 27.36456521571506
lwrist 4.9772665949998345
lhand -26.983294460618232 23.367383975200628
lfingers nan
lthumb -0.3752828081125237 53.41381831921492
rclavicle -1.2416407754064502e-15 -5.204117821807584e-16
rhumerus -31.74364633071832 -23.75552273645675 -77.92056181639128
rradius 28.727083678585522
rwrist 4.063352516033582
rhand -17.5565010168884 1.0
rfingers nan
rthumb 9.101206290109216 -7.846628492789582
